<?xml version="1.0" encoding="UTF-8" standalone="no"?>
<!DOCTYPE svg PUBLIC "-//W3C//DTD SVG 1.1//EN"
 "http://www.w3.org/Graphics/SVG/1.1/DTD/svg11.dtd">
<!-- Generated by graphviz version 2.36.0 (20140111.2315)
 -->
<!-- Title: Class Diagram Pages: 1 -->
<svg width="350pt" height="770pt"
 viewBox="0.00 0.00 350.00 770.00" xmlns="http://www.w3.org/2000/svg" xmlns:xlink="http://www.w3.org/1999/xlink">
<g id="graph0" class="graph" transform="scale(1 1) rotate(0) translate(4 766)">
<title>Class Diagram</title>
<polygon fill="white" stroke="none" points="-4,4 -4,-766 346,-766 346,4 -4,4"/>
<!-- \\UmlGeneratorPhp\\OopFilter -->
<g id="node1" class="node"><title>\\UmlGeneratorPhp\\OopFilter</title>
<text text-anchor="start" x="137.5" y="-410.3" font-family="Times,serif" font-size="14.00">&lt;&lt; class &gt;&gt;</text>
<text text-anchor="start" x="91" y="-390.8" font-family="Times,serif" font-size="14.00">\UmlGeneratorPhp\OopFilter</text>
<text text-anchor="start" x="11" y="-371.8" font-family="Times,serif" font-size="14.00"># useIndex</text>
<text text-anchor="start" x="11" y="-352.8" font-family="Times,serif" font-size="14.00"># index</text>
<text text-anchor="start" x="11" y="-333.8" font-family="Times,serif" font-size="14.00"># meta</text>
<text text-anchor="start" x="11" y="-314.8" font-family="Times,serif" font-size="14.00"># currentNamespace</text>
<text text-anchor="start" x="11" y="-295.8" font-family="Times,serif" font-size="14.00">+ leaveNode(statement : mixed)</text>
<text text-anchor="start" x="11" y="-276.8" font-family="Times,serif" font-size="14.00">+ setMeta(meta : mixed)</text>
<text text-anchor="start" x="11" y="-257.8" font-family="Times,serif" font-size="14.00">+ beforeTraverse(nodes : array)</text>
<text text-anchor="start" x="11" y="-238.8" font-family="Times,serif" font-size="14.00">+ enterNode(statement : mixed)</text>
<text text-anchor="start" x="11" y="-219.8" font-family="Times,serif" font-size="14.00">+ clearIndex()</text>
<text text-anchor="start" x="11" y="-200.8" font-family="Times,serif" font-size="14.00">+ getIndex()</text>
<text text-anchor="start" x="11" y="-181.8" font-family="Times,serif" font-size="14.00">+ getMeta()</text>
<text text-anchor="start" x="11" y="-162.8" font-family="Times,serif" font-size="14.00">&#45; parseUse(statement : mixed)</text>
<text text-anchor="start" x="11" y="-143.8" font-family="Times,serif" font-size="14.00">&#45; parseMethod(statement : mixed)</text>
<text text-anchor="start" x="11" y="-124.8" font-family="Times,serif" font-size="14.00">&#45; addIndex(fullyqualifiedname : mixed, filename : mixed)</text>
<text text-anchor="start" x="11" y="-105.8" font-family="Times,serif" font-size="14.00">&#45; parseProperty(statement : mixed)</text>
<text text-anchor="start" x="11" y="-86.8" font-family="Times,serif" font-size="14.00">&#45; parseClass(statement : mixed)</text>
<text text-anchor="start" x="11" y="-67.8" font-family="Times,serif" font-size="14.00">&#45; parseInterface(statement : mixed)</text>
<text text-anchor="start" x="11" y="-48.8" font-family="Times,serif" font-size="14.00">&#45; parseTrait(statement : mixed)</text>
<text text-anchor="start" x="11" y="-29.8" font-family="Times,serif" font-size="14.00">&#45; parseTraitUse(statement : mixed)</text>
<text text-anchor="start" x="11" y="-10.8" font-family="Times,serif" font-size="14.00">&#45; parseConstant(statement : mixed)</text>
<polygon fill="black" stroke="black" points="8,-385 8,-385 334,-385 334,-385 8,-385"/>
<polygon fill="black" stroke="black" points="8,-309 8,-309 334,-309 334,-309 8,-309"/>
<polygon fill="none" stroke="black" points="8,-4.5 8,-425.5 334,-425.5 334,-4.5 8,-4.5"/>
</g>
<!-- \\PhpParser\\NodeVisitorAbstract -->
<g id="node2" class="node"><title>\\PhpParser\\NodeVisitorAbstract</title>
<text text-anchor="start" x="137.5" y="-576.3" font-family="Times,serif" font-size="14.00">&lt;&lt; class &gt;&gt;</text>
<text text-anchor="start" x="83.5" y="-556.8" font-family="Times,serif" font-size="14.00">\PhpParser\NodeVisitorAbstract</text>
<text text-anchor="start" x="83" y="-533.8" font-family="Times,serif" font-size="14.00">+ afterTraverse(nodes : array)</text>
<text text-anchor="start" x="83" y="-514.8" font-family="Times,serif" font-size="14.00">+ leaveNode(node : mixed)</text>
<text text-anchor="start" x="83" y="-495.8" font-family="Times,serif" font-size="14.00">+ enterNode(node : mixed)</text>
<text text-anchor="start" x="83" y="-476.8" font-family="Times,serif" font-size="14.00">+ beforeTraverse(nodes : array)</text>
<polygon fill="black" stroke="black" points="80,-551 80,-551 262,-551 262,-551 80,-551"/>
<polygon fill="black" stroke="black" points="80,-547 80,-547 262,-547 262,-547 80,-547"/>
<polygon fill="none" stroke="black" points="80,-470.5 80,-591.5 262,-591.5 262,-470.5 80,-470.5"/>
</g>
<!-- \\PhpParser\\NodeVisitorAbstract&#45;&gt;\\UmlGeneratorPhp\\OopFilter -->
<g id="edge1" class="edge"><title>\\PhpParser\\NodeVisitorAbstract&#45;&gt;\\UmlGeneratorPhp\\OopFilter</title>
<path fill="none" stroke="black" d="M171,-466.457C171,-458.101 171,-449.189 171,-439.891"/>
<polygon fill="none" stroke="black" points="174.5,-439.66 171,-429.66 167.5,-439.66 174.5,-439.66"/>
</g>
<!-- \\PhpParser\\NodeVisitor -->
<g id="node3" class="node"><title>\\PhpParser\\NodeVisitor</title>
<text text-anchor="start" x="127.5" y="-742.3" font-family="Times,serif" font-size="14.00">&lt;&lt; interface &gt;&gt;</text>
<text text-anchor="start" x="106.5" y="-722.8" font-family="Times,serif" font-size="14.00">\PhpParser\NodeVisitor</text>
<text text-anchor="start" x="84" y="-699.8" font-family="Times,serif" font-size="14.00">+ afterTraverse(nodes : array)</text>
<text text-anchor="start" x="84" y="-680.8" font-family="Times,serif" font-size="14.00">+ leaveNode(node : mixed)</text>
<text text-anchor="start" x="84" y="-661.8" font-family="Times,serif" font-size="14.00">+ enterNode(node : mixed)</text>
<text text-anchor="start" x="84" y="-642.8" font-family="Times,serif" font-size="14.00">+ beforeTraverse(nodes : array)</text>
<polygon fill="black" stroke="black" points="81,-717 81,-717 262,-717 262,-717 81,-717"/>
<polygon fill="black" stroke="black" points="81,-713 81,-713 262,-713 262,-713 81,-713"/>
<polygon fill="none" stroke="black" points="80.5,-636.5 80.5,-757.5 261.5,-757.5 261.5,-636.5 80.5,-636.5"/>
</g>
<!-- \\PhpParser\\NodeVisitor&#45;&gt;\\PhpParser\\NodeVisitorAbstract -->
<g id="edge2" class="edge"><title>\\PhpParser\\NodeVisitor&#45;&gt;\\PhpParser\\NodeVisitorAbstract</title>
<path fill="none" stroke="black" stroke-dasharray="5,2" d="M171,-632.124C171,-623.526 171,-614.649 171,-605.896"/>
<polygon fill="none" stroke="black" points="174.5,-605.702 171,-595.702 167.5,-605.702 174.5,-605.702"/>
</g>
</g>
</svg>
