<?xml version="1.0" encoding="UTF-8" standalone="no"?>
<!DOCTYPE svg PUBLIC "-//W3C//DTD SVG 1.1//EN"
 "http://www.w3.org/Graphics/SVG/1.1/DTD/svg11.dtd">
<!-- Generated by graphviz version 2.36.0 (20140111.2315)
 -->
<!-- Title: Class Diagram Pages: 1 -->
<svg width="521pt" height="364pt"
 viewBox="0.00 0.00 521.00 364.00" xmlns="http://www.w3.org/2000/svg" xmlns:xlink="http://www.w3.org/1999/xlink">
<g id="graph0" class="graph" transform="scale(1 1) rotate(0) translate(4 360)">
<title>Class Diagram</title>
<polygon fill="white" stroke="none" points="-4,4 -4,-360 517,-360 517,4 -4,4"/>
<!-- \\Symfony\\Component\\Finder\\Exception\\ShellCommandFailureException -->
<g id="node1" class="node"><title>\\Symfony\\Component\\Finder\\Exception\\ShellCommandFailureException</title>
<text text-anchor="start" x="268" y="-87.3" font-family="Times,serif" font-size="14.00">&lt;&lt; class &gt;&gt;</text>
<text text-anchor="start" x="100.5" y="-67.8" font-family="Times,serif" font-size="14.00">\Symfony\Component\Finder\Exception\ShellCommandFailureException</text>
<text text-anchor="start" x="100" y="-48.8" font-family="Times,serif" font-size="14.00">&#45; command</text>
<text text-anchor="start" x="100" y="-29.8" font-family="Times,serif" font-size="14.00">+ getCommand()</text>
<text text-anchor="start" x="100" y="-10.8" font-family="Times,serif" font-size="14.00">+ __construct(adapter : mixed, command : mixed, previous : mixed)</text>
<polygon fill="black" stroke="black" points="97,-62 97,-62 506,-62 506,-62 97,-62"/>
<polygon fill="black" stroke="black" points="97,-43 97,-43 506,-43 506,-43 97,-43"/>
<polygon fill="none" stroke="black" points="96.5,-4 96.5,-102 505.5,-102 505.5,-4 96.5,-4"/>
</g>
<!-- \\Symfony\\Component\\Finder\\Exception\\AdapterFailureException -->
<g id="node2" class="node"><title>\\Symfony\\Component\\Finder\\Exception\\AdapterFailureException</title>
<text text-anchor="start" x="268" y="-229.3" font-family="Times,serif" font-size="14.00">&lt;&lt; class &gt;&gt;</text>
<text text-anchor="start" x="121.5" y="-209.8" font-family="Times,serif" font-size="14.00">\Symfony\Component\Finder\Exception\AdapterFailureException</text>
<text text-anchor="start" x="116" y="-190.8" font-family="Times,serif" font-size="14.00">&#45; adapter</text>
<text text-anchor="start" x="116" y="-171.8" font-family="Times,serif" font-size="14.00">+ getAdapter()</text>
<text text-anchor="start" x="116" y="-152.8" font-family="Times,serif" font-size="14.00">+ __construct(adapter : mixed, message : mixed, previous : mixed)</text>
<polygon fill="black" stroke="black" points="113,-204 113,-204 490,-204 490,-204 113,-204"/>
<polygon fill="black" stroke="black" points="113,-185 113,-185 490,-185 490,-185 113,-185"/>
<polygon fill="none" stroke="black" points="112.5,-146 112.5,-244 489.5,-244 489.5,-146 112.5,-146"/>
</g>
<!-- \\Symfony\\Component\\Finder\\Exception\\AdapterFailureException&#45;&gt;\\Symfony\\Component\\Finder\\Exception\\ShellCommandFailureException -->
<g id="edge1" class="edge"><title>\\Symfony\\Component\\Finder\\Exception\\AdapterFailureException&#45;&gt;\\Symfony\\Component\\Finder\\Exception\\ShellCommandFailureException</title>
<path fill="none" stroke="black" d="M301,-141.869C301,-133.579 301,-124.93 301,-116.432"/>
<polygon fill="none" stroke="black" points="304.5,-116.174 301,-106.174 297.5,-116.174 304.5,-116.174"/>
</g>
<!-- \\Symfony\\Component\\Finder\\Exception\\ExceptionInterface -->
<g id="node3" class="node"><title>\\Symfony\\Component\\Finder\\Exception\\ExceptionInterface</title>
<text text-anchor="start" x="130.5" y="-337.3" font-family="Times,serif" font-size="14.00">&lt;&lt; interface &gt;&gt;</text>
<text text-anchor="start" x="11.5" y="-317.8" font-family="Times,serif" font-size="14.00">\Symfony\Component\Finder\Exception\ExceptionInterface</text>
<text text-anchor="start" x="11" y="-294.8" font-family="Times,serif" font-size="14.00">+ getAdapter()</text>
<polygon fill="black" stroke="black" points="8,-312 8,-312 341,-312 341,-312 8,-312"/>
<polygon fill="black" stroke="black" points="8,-308 8,-308 341,-308 341,-308 8,-308"/>
<polygon fill="none" stroke="black" points="7.5,-288 7.5,-352 340.5,-352 340.5,-288 7.5,-288"/>
</g>
<!-- \\Symfony\\Component\\Finder\\Exception\\ExceptionInterface&#45;&gt;\\Symfony\\Component\\Finder\\Exception\\AdapterFailureException -->
<g id="edge2" class="edge"><title>\\Symfony\\Component\\Finder\\Exception\\ExceptionInterface&#45;&gt;\\Symfony\\Component\\Finder\\Exception\\AdapterFailureException</title>
<path fill="none" stroke="black" stroke-dasharray="5,2" d="M210.393,-283.753C219.594,-274.842 229.73,-265.025 239.789,-255.283"/>
<polygon fill="none" stroke="black" points="242.338,-257.687 247.086,-248.216 237.468,-252.659 242.338,-257.687"/>
</g>
<!-- \\RuntimeException -->
<g id="node4" class="node"><title>\\RuntimeException</title>
<text text-anchor="middle" x="428" y="-316.3" font-family="Times,serif" font-size="14.00">\RuntimeException</text>
</g>
<!-- \\RuntimeException&#45;&gt;\\Symfony\\Component\\Finder\\Exception\\AdapterFailureException -->
<g id="edge3" class="edge"><title>\\RuntimeException&#45;&gt;\\Symfony\\Component\\Finder\\Exception\\AdapterFailureException</title>
<path fill="none" stroke="black" d="M410.341,-301.897C397.698,-289.653 379.864,-272.38 362.259,-255.33"/>
<polygon fill="none" stroke="black" points="364.363,-252.495 354.744,-248.052 359.493,-257.523 364.363,-252.495"/>
</g>
</g>
</svg>
