<?xml version="1.0" encoding="UTF-8" standalone="no"?>
<!DOCTYPE svg PUBLIC "-//W3C//DTD SVG 1.1//EN"
 "http://www.w3.org/Graphics/SVG/1.1/DTD/svg11.dtd">
<!-- Generated by graphviz version 2.36.0 (20140111.2315)
 -->
<!-- Title: Class Diagram Pages: 1 -->
<svg width="322pt" height="300pt"
 viewBox="0.00 0.00 322.00 300.00" xmlns="http://www.w3.org/2000/svg" xmlns:xlink="http://www.w3.org/1999/xlink">
<g id="graph0" class="graph" transform="scale(1 1) rotate(0) translate(4 296)">
<title>Class Diagram</title>
<polygon fill="white" stroke="none" points="-4,4 -4,-296 318,-296 318,4 -4,4"/>
<!-- \\UmlGeneratorPhp\\Command\\BaseCommand -->
<g id="node1" class="node"><title>\\UmlGeneratorPhp\\Command\\BaseCommand</title>
<text text-anchor="start" x="132.5" y="-201.3" font-family="Times,serif" font-size="14.00">« class »</text>
<text text-anchor="start" x="27.5" y="-181.8" font-family="Times,serif" font-size="14.00">\UmlGeneratorPhp\Command\BaseCommand</text>
<text text-anchor="start" x="27" y="-162.8" font-family="Times,serif" font-size="14.00">+ projectRoot</text>
<text text-anchor="start" x="27" y="-143.8" font-family="Times,serif" font-size="14.00">+ output</text>
<text text-anchor="start" x="27" y="-124.8" font-family="Times,serif" font-size="14.00">+ writeln(text : mixed)</text>
<text text-anchor="start" x="27" y="-105.8" font-family="Times,serif" font-size="14.00">+ getProjectRoot()</text>
<text text-anchor="start" x="27" y="-86.8" font-family="Times,serif" font-size="14.00">+ setOutput(output : mixed)</text>
<text text-anchor="start" x="27" y="-67.8" font-family="Times,serif" font-size="14.00">+ getConfig()</text>
<text text-anchor="start" x="27" y="-48.8" font-family="Times,serif" font-size="14.00">+ getOutput()</text>
<text text-anchor="start" x="27" y="-29.8" font-family="Times,serif" font-size="14.00"># findConfig()</text>
<text text-anchor="start" x="27" y="-10.8" font-family="Times,serif" font-size="14.00">&#45; setProjectRoot(projectRoot : mixed)</text>
<polygon fill="black" stroke="black" points="24,-176 24,-176 290,-176 290,-176 24,-176"/>
<polygon fill="black" stroke="black" points="24,-138 24,-138 290,-138 290,-138 24,-138"/>
<polygon fill="none" stroke="black" points="24,-4 24,-216 290,-216 290,-4 24,-4"/>
</g>
<!-- \\Symfony\\Component\\Console\\Command\\Command -->
<g id="node2" class="node"><title>\\Symfony\\Component\\Console\\Command\\Command</title>
<text text-anchor="middle" x="157" y="-270.3" font-family="Times,serif" font-size="14.00">\Symfony\Component\Console\Command\Command</text>
</g>
<!-- \\Symfony\\Component\\Console\\Command\\Command&#45;&gt;\\UmlGeneratorPhp\\Command\\BaseCommand -->
<g id="edge1" class="edge"><title>\\Symfony\\Component\\Console\\Command\\Command&#45;&gt;\\UmlGeneratorPhp\\Command\\BaseCommand</title>
<path fill="none" stroke="black" d="M157,-255.969C157,-248.902 157,-240.05 157,-230.225"/>
<polygon fill="none" stroke="black" points="160.5,-230.106 157,-220.106 153.5,-230.106 160.5,-230.106"/>
</g>
</g>
</svg>
