<?xml version="1.0" encoding="UTF-8" standalone="no"?>
<!DOCTYPE svg PUBLIC "-//W3C//DTD SVG 1.1//EN"
 "http://www.w3.org/Graphics/SVG/1.1/DTD/svg11.dtd">
<!-- Generated by graphviz version 2.36.0 (20140111.2315)
 -->
<!-- Title: Class Diagram Pages: 1 -->
<svg width="282pt" height="190pt"
 viewBox="0.00 0.00 282.00 190.00" xmlns="http://www.w3.org/2000/svg" xmlns:xlink="http://www.w3.org/1999/xlink">
<g id="graph0" class="graph" transform="scale(1 1) rotate(0) translate(4 186)">
<title>Class Diagram</title>
<polygon fill="white" stroke="none" points="-4,4 -4,-186 278,-186 278,4 -4,4"/>
<!-- \\UmlGeneratorPhp\\Command\\DotCommand -->
<g id="node1" class="node"><title>\\UmlGeneratorPhp\\Command\\DotCommand</title>
<text text-anchor="start" x="113" y="-91.3" font-family="Times,serif" font-size="14.00">« class »</text>
<text text-anchor="start" x="11.5" y="-71.8" font-family="Times,serif" font-size="14.00">\UmlGeneratorPhp\Command\DotCommand</text>
<text text-anchor="start" x="11" y="-48.8" font-family="Times,serif" font-size="14.00"># configure()</text>
<text text-anchor="start" x="11" y="-29.8" font-family="Times,serif" font-size="14.00"># execute(input : mixed, output : mixed)</text>
<text text-anchor="start" x="11" y="-10.8" font-family="Times,serif" font-size="14.00">&#45; checkValidJson(json : array)</text>
<polygon fill="black" stroke="black" points="8,-66 8,-66 267,-66 267,-66 8,-66"/>
<polygon fill="black" stroke="black" points="8,-62 8,-62 267,-62 267,-62 8,-62"/>
<polygon fill="none" stroke="black" points="7.5,-4 7.5,-106 266.5,-106 266.5,-4 7.5,-4"/>
</g>
<!-- \\UmlGeneratorPhp\\Command\\BaseCommand -->
<g id="node2" class="node"><title>\\UmlGeneratorPhp\\Command\\BaseCommand</title>
<text text-anchor="middle" x="137" y="-160.3" font-family="Times,serif" font-size="14.00">\UmlGeneratorPhp\Command\BaseCommand</text>
</g>
<!-- \\UmlGeneratorPhp\\Command\\BaseCommand&#45;&gt;\\UmlGeneratorPhp\\Command\\DotCommand -->
<g id="edge1" class="edge"><title>\\UmlGeneratorPhp\\Command\\BaseCommand&#45;&gt;\\UmlGeneratorPhp\\Command\\DotCommand</title>
<path fill="none" stroke="black" d="M137,-145.809C137,-138.607 137,-129.743 137,-120.418"/>
<polygon fill="none" stroke="black" points="140.5,-120.173 137,-110.173 133.5,-120.174 140.5,-120.173"/>
</g>
</g>
</svg>
