<?xml version="1.0" encoding="UTF-8" standalone="no"?>
<!DOCTYPE svg PUBLIC "-//W3C//DTD SVG 1.1//EN"
 "http://www.w3.org/Graphics/SVG/1.1/DTD/svg11.dtd">
<!-- Generated by graphviz version 2.36.0 (20140111.2315)
 -->
<!-- Title: Class Diagram Pages: 1 -->
<svg width="286pt" height="172pt"
 viewBox="0.00 0.00 286.00 172.00" xmlns="http://www.w3.org/2000/svg" xmlns:xlink="http://www.w3.org/1999/xlink">
<g id="graph0" class="graph" transform="scale(1 1) rotate(0) translate(4 168)">
<title>Class Diagram</title>
<polygon fill="white" stroke="none" points="-4,4 -4,-168 282,-168 282,4 -4,4"/>
<!-- \\UmlGeneratorPhp\\Command\\JsonCommand -->
<g id="node1" class="node"><title>\\UmlGeneratorPhp\\Command\\JsonCommand</title>
<text text-anchor="start" x="115" y="-72.3" font-family="Times,serif" font-size="14.00">« class »</text>
<text text-anchor="start" x="11.5" y="-52.8" font-family="Times,serif" font-size="14.00">\UmlGeneratorPhp\Command\JsonCommand</text>
<text text-anchor="start" x="11" y="-29.8" font-family="Times,serif" font-size="14.00"># execute(input : mixed, output : mixed)</text>
<text text-anchor="start" x="11" y="-10.8" font-family="Times,serif" font-size="14.00"># configure()</text>
<polygon fill="black" stroke="black" points="8,-47 8,-47 271,-47 271,-47 8,-47"/>
<polygon fill="black" stroke="black" points="8,-43 8,-43 271,-43 271,-43 8,-43"/>
<polygon fill="none" stroke="black" points="7.5,-4.5 7.5,-87.5 270.5,-87.5 270.5,-4.5 7.5,-4.5"/>
</g>
<!-- \\UmlGeneratorPhp\\Command\\BaseCommand -->
<g id="node2" class="node"><title>\\UmlGeneratorPhp\\Command\\BaseCommand</title>
<text text-anchor="middle" x="139" y="-142.3" font-family="Times,serif" font-size="14.00">\UmlGeneratorPhp\Command\BaseCommand</text>
</g>
<!-- \\UmlGeneratorPhp\\Command\\BaseCommand&#45;&gt;\\UmlGeneratorPhp\\Command\\JsonCommand -->
<g id="edge1" class="edge"><title>\\UmlGeneratorPhp\\Command\\BaseCommand&#45;&gt;\\UmlGeneratorPhp\\Command\\JsonCommand</title>
<path fill="none" stroke="black" d="M139,-127.93C139,-120.52 139,-111.384 139,-101.949"/>
<polygon fill="none" stroke="black" points="142.5,-101.662 139,-91.6625 135.5,-101.663 142.5,-101.662"/>
</g>
</g>
</svg>
