<?xml version="1.0" encoding="UTF-8" standalone="no"?>
<!DOCTYPE svg PUBLIC "-//W3C//DTD SVG 1.1//EN"
 "http://www.w3.org/Graphics/SVG/1.1/DTD/svg11.dtd">
<!-- Generated by graphviz version 2.36.0 (20140111.2315)
 -->
<!-- Title: Class Diagram Pages: 1 -->
<svg width="286pt" height="210pt"
 viewBox="0.00 0.00 286.00 210.00" xmlns="http://www.w3.org/2000/svg" xmlns:xlink="http://www.w3.org/1999/xlink">
<g id="graph0" class="graph" transform="scale(1 1) rotate(0) translate(4 206)">
<title>Class Diagram</title>
<polygon fill="white" stroke="none" points="-4,4 -4,-206 282,-206 282,4 -4,4"/>
<!-- \\UmlGeneratorPhp\\Command\\RunCommand -->
<g id="node1" class="node"><title>\\UmlGeneratorPhp\\Command\\RunCommand</title>
<text text-anchor="start" x="114.5" y="-110.3" font-family="Times,serif" font-size="14.00">« class »</text>
<text text-anchor="start" x="11.5" y="-90.8" font-family="Times,serif" font-size="14.00">\UmlGeneratorPhp\Command\RunCommand</text>
<text text-anchor="start" x="11" y="-67.8" font-family="Times,serif" font-size="14.00"># copyWeb(outputDirectory : mixed)</text>
<text text-anchor="start" x="11" y="-48.8" font-family="Times,serif" font-size="14.00"># runWebserver(outputDirectory : mixed)</text>
<text text-anchor="start" x="11" y="-29.8" font-family="Times,serif" font-size="14.00"># execute(input : mixed, output : mixed)</text>
<text text-anchor="start" x="11" y="-10.8" font-family="Times,serif" font-size="14.00"># configure()</text>
<polygon fill="black" stroke="black" points="8,-85 8,-85 270,-85 270,-85 8,-85"/>
<polygon fill="black" stroke="black" points="8,-81 8,-81 270,-81 270,-81 8,-81"/>
<polygon fill="none" stroke="black" points="8,-4.5 8,-125.5 270,-125.5 270,-4.5 8,-4.5"/>
</g>
<!-- \\UmlGeneratorPhp\\Command\\BaseCommand -->
<g id="node2" class="node"><title>\\UmlGeneratorPhp\\Command\\BaseCommand</title>
<text text-anchor="middle" x="139" y="-180.3" font-family="Times,serif" font-size="14.00">\UmlGeneratorPhp\Command\BaseCommand</text>
</g>
<!-- \\UmlGeneratorPhp\\Command\\BaseCommand&#45;&gt;\\UmlGeneratorPhp\\Command\\RunCommand -->
<g id="edge1" class="edge"><title>\\UmlGeneratorPhp\\Command\\BaseCommand&#45;&gt;\\UmlGeneratorPhp\\Command\\RunCommand</title>
<path fill="none" stroke="black" d="M139,-165.987C139,-158.696 139,-149.634 139,-139.964"/>
<polygon fill="none" stroke="black" points="142.5,-139.716 139,-129.716 135.5,-139.716 142.5,-139.716"/>
</g>
</g>
</svg>
