<?xml version="1.0" encoding="UTF-8" standalone="no"?>
<!DOCTYPE svg PUBLIC "-//W3C//DTD SVG 1.1//EN"
 "http://www.w3.org/Graphics/SVG/1.1/DTD/svg11.dtd">
<!-- Generated by graphviz version 2.36.0 (20140111.2315)
 -->
<!-- Title: Class Diagram Pages: 1 -->
<svg width="318pt" height="244pt"
 viewBox="0.00 0.00 318.00 244.00" xmlns="http://www.w3.org/2000/svg" xmlns:xlink="http://www.w3.org/1999/xlink">
<g id="graph0" class="graph" transform="scale(1 1) rotate(0) translate(4 240)">
<title>Class Diagram</title>
<polygon fill="white" stroke="none" points="-4,4 -4,-240 314,-240 314,4 -4,4"/>
<!-- \\UmlGeneratorPhp\\DrupalDocumentation -->
<g id="node1" class="node"><title>\\UmlGeneratorPhp\\DrupalDocumentation</title>
<text text-anchor="start" x="130.5" y="-144.3" font-family="Times,serif" font-size="14.00">« class »</text>
<text text-anchor="start" x="37" y="-124.8" font-family="Times,serif" font-size="14.00">\UmlGeneratorPhp\DrupalDocumentation</text>
<text text-anchor="start" x="11" y="-105.8" font-family="Times,serif" font-size="14.00"># meta</text>
<text text-anchor="start" x="11" y="-86.8" font-family="Times,serif" font-size="14.00">+ getObjectURL(data : mixed)</text>
<text text-anchor="start" x="11" y="-67.8" font-family="Times,serif" font-size="14.00">+ getPropertyURL(data : mixed, classdata : mixed)</text>
<text text-anchor="start" x="11" y="-48.8" font-family="Times,serif" font-size="14.00">+ getMethodURL(data : mixed, classdata : mixed)</text>
<text text-anchor="start" x="11" y="-29.8" font-family="Times,serif" font-size="14.00">+ getSiteURL(data : mixed)</text>
<text text-anchor="start" x="11" y="-10.8" font-family="Times,serif" font-size="14.00">+ __construct(meta : mixed)</text>
<polygon fill="black" stroke="black" points="8,-119 8,-119 302,-119 302,-119 8,-119"/>
<polygon fill="black" stroke="black" points="8,-100 8,-100 302,-100 302,-100 8,-100"/>
<polygon fill="none" stroke="black" points="8,-4.5 8,-159.5 302,-159.5 302,-4.5 8,-4.5"/>
</g>
<!-- \\UmlGeneratorPhp\\Documentation -->
<g id="node2" class="node"><title>\\UmlGeneratorPhp\\Documentation</title>
<text text-anchor="middle" x="155" y="-214.3" font-family="Times,serif" font-size="14.00">\UmlGeneratorPhp\Documentation</text>
</g>
<!-- \\UmlGeneratorPhp\\Documentation&#45;&gt;\\UmlGeneratorPhp\\DrupalDocumentation -->
<g id="edge1" class="edge"><title>\\UmlGeneratorPhp\\Documentation&#45;&gt;\\UmlGeneratorPhp\\DrupalDocumentation</title>
<path fill="none" stroke="black" d="M155,-199.756C155,-192.493 155,-183.443 155,-173.616"/>
<polygon fill="none" stroke="black" points="158.5,-173.567 155,-163.567 151.5,-173.567 158.5,-173.567"/>
</g>
</g>
</svg>
