<?xml version="1.0" encoding="UTF-8" standalone="no"?>
<!DOCTYPE svg PUBLIC "-//W3C//DTD SVG 1.1//EN"
 "http://www.w3.org/Graphics/SVG/1.1/DTD/svg11.dtd">
<!-- Generated by graphviz version 2.36.0 (20140111.2315)
 -->
<!-- Title: Class Diagram Pages: 1 -->
<svg width="454pt" height="510pt"
 viewBox="0.00 0.00 454.00 510.00" xmlns="http://www.w3.org/2000/svg" xmlns:xlink="http://www.w3.org/1999/xlink">
<g id="graph0" class="graph" transform="scale(1 1) rotate(0) translate(4 506)">
<title>Class Diagram</title>
<polygon fill="white" stroke="none" points="-4,4 -4,-506 450,-506 450,4 -4,4"/>
<!-- \\UmlGeneratorPhp\\OopFilter -->
<g id="node1" class="node"><title>\\UmlGeneratorPhp\\OopFilter</title>
<text text-anchor="start" x="199" y="-410.3" font-family="Times,serif" font-size="14.00">« class »</text>
<text text-anchor="start" x="141" y="-390.8" font-family="Times,serif" font-size="14.00">\UmlGeneratorPhp\OopFilter</text>
<text text-anchor="start" x="11" y="-371.8" font-family="Times,serif" font-size="14.00"># useIndex</text>
<text text-anchor="start" x="11" y="-352.8" font-family="Times,serif" font-size="14.00"># index</text>
<text text-anchor="start" x="11" y="-333.8" font-family="Times,serif" font-size="14.00"># meta</text>
<text text-anchor="start" x="11" y="-314.8" font-family="Times,serif" font-size="14.00"># currentNamespace</text>
<text text-anchor="start" x="11" y="-295.8" font-family="Times,serif" font-size="14.00">+ leaveNode(statement : mixed)</text>
<text text-anchor="start" x="11" y="-276.8" font-family="Times,serif" font-size="14.00">+ setMeta(meta : mixed)</text>
<text text-anchor="start" x="11" y="-257.8" font-family="Times,serif" font-size="14.00">+ beforeTraverse(nodes : array)</text>
<text text-anchor="start" x="11" y="-238.8" font-family="Times,serif" font-size="14.00">+ enterNode(statement : mixed)</text>
<text text-anchor="start" x="11" y="-219.8" font-family="Times,serif" font-size="14.00">+ clearIndex()</text>
<text text-anchor="start" x="11" y="-200.8" font-family="Times,serif" font-size="14.00">+ getIndex()</text>
<text text-anchor="start" x="11" y="-181.8" font-family="Times,serif" font-size="14.00">+ getMeta()</text>
<text text-anchor="start" x="11" y="-162.8" font-family="Times,serif" font-size="14.00">&#45; parseUse(statement : mixed)</text>
<text text-anchor="start" x="11" y="-143.8" font-family="Times,serif" font-size="14.00">&#45; parseMethod(statement : mixed)</text>
<text text-anchor="start" x="11" y="-124.8" font-family="Times,serif" font-size="14.00">&#45; addIndex(fullyqualifiedname : mixed, filename : mixed, relations : mixed)</text>
<text text-anchor="start" x="11" y="-105.8" font-family="Times,serif" font-size="14.00">&#45; parseProperty(statement : mixed)</text>
<text text-anchor="start" x="11" y="-86.8" font-family="Times,serif" font-size="14.00">&#45; parseClass(statement : mixed)</text>
<text text-anchor="start" x="11" y="-67.8" font-family="Times,serif" font-size="14.00">&#45; parseInterface(statement : mixed)</text>
<text text-anchor="start" x="11" y="-48.8" font-family="Times,serif" font-size="14.00">&#45; parseTrait(statement : mixed)</text>
<text text-anchor="start" x="11" y="-29.8" font-family="Times,serif" font-size="14.00">&#45; parseTraitUse(statement : mixed)</text>
<text text-anchor="start" x="11" y="-10.8" font-family="Times,serif" font-size="14.00">&#45; parseConstant(statement : mixed)</text>
<polygon fill="black" stroke="black" points="8,-385 8,-385 439,-385 439,-385 8,-385"/>
<polygon fill="black" stroke="black" points="8,-309 8,-309 439,-309 439,-309 8,-309"/>
<polygon fill="none" stroke="black" points="7.5,-4.5 7.5,-425.5 438.5,-425.5 438.5,-4.5 7.5,-4.5"/>
</g>
<!-- \\PhpParser\\NodeVisitorAbstract -->
<g id="node2" class="node"><title>\\PhpParser\\NodeVisitorAbstract</title>
<text text-anchor="middle" x="223" y="-480.3" font-family="Times,serif" font-size="14.00">\PhpParser\NodeVisitorAbstract</text>
</g>
<!-- \\PhpParser\\NodeVisitorAbstract&#45;&gt;\\UmlGeneratorPhp\\OopFilter -->
<g id="edge1" class="edge"><title>\\PhpParser\\NodeVisitorAbstract&#45;&gt;\\UmlGeneratorPhp\\OopFilter</title>
<path fill="none" stroke="black" d="M223,-465.892C223,-458.87 223,-449.975 223,-439.751"/>
<polygon fill="none" stroke="black" points="226.5,-439.56 223,-429.56 219.5,-439.56 226.5,-439.56"/>
</g>
</g>
</svg>
