<?xml version="1.0" encoding="UTF-8" standalone="no"?>
<!DOCTYPE svg PUBLIC "-//W3C//DTD SVG 1.1//EN"
 "http://www.w3.org/Graphics/SVG/1.1/DTD/svg11.dtd">
<!-- Generated by graphviz version 2.36.0 (20140111.2315)
 -->
<!-- Title: Class Diagram Pages: 1 -->
<svg width="544pt" height="172pt"
 viewBox="0.00 0.00 544.00 172.00" xmlns="http://www.w3.org/2000/svg" xmlns:xlink="http://www.w3.org/1999/xlink">
<g id="graph0" class="graph" transform="scale(1 1) rotate(0) translate(4 168)">
<title>Class Diagram</title>
<polygon fill="white" stroke="none" points="-4,4 -4,-168 540,-168 540,4 -4,4"/>
<!-- \\UmlGeneratorPhp\\OopToDot -->
<g id="node1" class="node"><title>\\UmlGeneratorPhp\\OopToDot</title>
<text text-anchor="start" x="243.5" y="-144.3" font-family="Times,serif" font-size="14.00">« class »</text>
<text text-anchor="start" x="182" y="-124.8" font-family="Times,serif" font-size="14.00">\UmlGeneratorPhp\OopToDot</text>
<text text-anchor="start" x="11" y="-105.8" font-family="Times,serif" font-size="14.00"># documenter</text>
<text text-anchor="start" x="11" y="-86.8" font-family="Times,serif" font-size="14.00">+ getClassDiagram(array : mixed, legacy : mixed)</text>
<text text-anchor="start" x="11" y="-67.8" font-family="Times,serif" font-size="14.00">+ __construct(documenter : mixed)</text>
<text text-anchor="start" x="11" y="-48.8" font-family="Times,serif" font-size="14.00">+ loadParentDiagram(array : mixed, file_index : mixed, limit : mixed, loaded_files : mixed)</text>
<text text-anchor="start" x="11" y="-29.8" font-family="Times,serif" font-size="14.00">+ getMergedDiagram(array : mixed, file_index : mixed, limit : mixed, legacy : mixed)</text>
<text text-anchor="start" x="11" y="-10.8" font-family="Times,serif" font-size="14.00">&#45; getSafeName(namespace : mixed)</text>
<polygon fill="black" stroke="black" points="8,-119 8,-119 528,-119 528,-119 8,-119"/>
<polygon fill="black" stroke="black" points="8,-100 8,-100 528,-100 528,-100 8,-100"/>
<polygon fill="none" stroke="black" points="8,-4.5 8,-159.5 528,-159.5 528,-4.5 8,-4.5"/>
</g>
</g>
</svg>
